<svg xmlns="http://www.w3.org/2000/svg" viewBox="0 0 128 128" width="128" height="128">
  <!-- Outer container with rounded corners and Visdom Navy border -->
  <rect x="8" y="8" width="112" height="112" rx="20" ry="20" fill="#ffffff" stroke="#3b5998" stroke-width="8" />
  
  <!-- Grid lines -->
  <line x1="28" y1="12" x2="28" y2="116" stroke="#f0f0f0" stroke-width="2" />
  <line x1="48" y1="12" x2="48" y2="116" stroke="#f0f0f0" stroke-width="2" />
  <line x1="68" y1="12" x2="68" y2="116" stroke="#f0f0f0" stroke-width="2" />
  <line x1="88" y1="12" x2="88" y2="116" stroke="#f0f0f0" stroke-width="2" />
  
  <line x1="12" y1="28" x2="116" y2="28" stroke="#f0f0f0" stroke-width="2" />
  <line x1="12" y1="48" x2="116" y2="48" stroke="#f0f0f0" stroke-width="2" />
  <line x1="12" y1="68" x2="116" y2="68" stroke="#f0f0f0" stroke-width="2" />
  <line x1="12" y1="88" x2="116" y2="88" stroke="#f0f0f0" stroke-width="2" />

  <!-- Data chart line plot in the background of the box -->
  <path d="M 16 96 L 40 76 L 60 82 L 84 48 L 112 36" fill="none" stroke="#2185d0" stroke-width="6" stroke-linecap="round" stroke-linejoin="round" />
  <circle cx="40" cy="76" r="4" fill="#2185d0" />
  <circle cx="60" cy="82" r="4" fill="#2185d0" />
  <circle cx="84" cy="48" r="4" fill="#2185d0" />

  <!-- Stylized bold "v" in the center -->
  <path d="M 44 46 L 64 86 L 84 46" fill="none" stroke="#3b5998" stroke-width="14" stroke-linecap="round" stroke-linejoin="round" />
</svg>
